<?xml version="1.0" standalone="no"?>
<!DOCTYPE svg PUBLIC "-//W3C//DTD SVG 20010904//EN"
 "http://www.w3.org/TR/2001/REC-SVG-20010904/DTD/svg10.dtd">
<svg version="1.0" xmlns="http://www.w3.org/2000/svg"
 width="512.000000pt" height="512.000000pt" viewBox="0 0 512.000000 512.000000"
 preserveAspectRatio="xMidYMid meet">

<g transform="translate(0.000000,512.000000) scale(0.100000,-0.100000)"
fill="#fff" stroke="none">
<path d="M2495 4982 c-79 -49 -125 -127 -290 -492 -147 -325 -334 -704 -408
-827 -104 -172 -140 -198 -342 -242 -116 -26 -515 -75 -815 -101 -485 -42
-576 -65 -625 -161 -49 -94 6 -174 320 -467 282 -262 646 -622 746 -735 42
-49 88 -110 102 -136 30 -54 49 -157 41 -216 -4 -22 -74 -321 -156 -665 -162
-677 -165 -695 -118 -760 46 -65 116 -76 233 -36 40 14 236 107 437 208 621
313 827 401 940 401 113 0 319 -88 940 -401 379 -190 478 -232 553 -232 81 0
147 70 147 156 0 23 -67 322 -149 665 -82 343 -152 641 -156 661 -10 55 12
167 44 224 16 27 62 87 103 134 100 113 471 479 743 732 314 293 369 373 320
467 -49 96 -140 119 -625 161 -300 26 -699 75 -815 101 -202 44 -238 70 -342
242 -74 123 -263 506 -408 827 -53 118 -118 256 -143 305 -91 177 -187 242
-277 187z m100 -216 c14 -25 91 -187 171 -361 172 -377 374 -780 444 -887 97
-148 177 -205 345 -248 152 -39 462 -80 955 -125 267 -25 383 -39 414 -51 25
-10 -18 -56 -299 -318 -340 -317 -674 -650 -756 -754 -86 -108 -118 -176 -138
-289 -13 -76 -13 -104 -3 -160 6 -37 77 -340 156 -672 80 -333 145 -606 143
-607 -7 -7 -178 71 -325 149 -180 95 -698 344 -832 400 -260 109 -360 109
-620 0 -134 -56 -652 -305 -832 -400 -153 -81 -318 -156 -326 -149 -1 2 8 48
22 102 14 55 82 338 152 629 111 461 128 541 128 615 0 151 -37 250 -146 386
-80 101 -420 439 -753 750 -281 262 -324 308 -299 318 31 12 147 26 414 51
493 45 803 86 955 125 168 43 244 97 344 246 66 100 299 565 464 929 129 283
171 365 187 365 5 0 21 -20 35 -44z"/>
</g>
</svg>
